<?xml version="1.0" standalone="no"?>
<!DOCTYPE svg PUBLIC "-//W3C//DTD SVG 20010904//EN"
 "http://www.w3.org/TR/2001/REC-SVG-20010904/DTD/svg10.dtd">
<svg version="1.0" xmlns="http://www.w3.org/2000/svg"
 width="96.000000pt" height="96.000000pt" viewBox="0 0 96.000000 96.000000"
 preserveAspectRatio="xMidYMid meet">
<metadata>
Created by potrace 1.14, written by Peter Selinger 2001-2017
</metadata>
<g transform="translate(0.000000,96.000000) scale(0.100000,-0.100000)"
fill="#000000" stroke="none">
<path d="M333 922 c-28 -2 -43 -8 -43 -17 0 -7 -9 -16 -19 -20 -10 -3 -21 -15
-24 -26 -3 -11 -11 -18 -19 -17 -10 2 -13 -37 -13 -207 l0 -210 268 -2 c257
-1 267 -1 267 18 0 12 7 19 20 19 13 0 20 7 20 20 0 12 7 20 18 20 16 0 17 15
18 190 0 183 -1 189 -21 192 -13 2 -19 9 -17 21 2 13 -4 17 -30 17 -311 4
-390 5 -425 2z m457 -57 c0 -14 -12 -19 -32 -16 -5 0 -8 -7 -8 -18 0 -10 -9
-21 -21 -24 -16 -4 -20 -1 -17 16 2 12 9 21 17 19 7 -1 15 7 18 18 6 23 43 28
43 5z m-140 -230 l0 -115 -170 0 -170 0 -1 30 c0 17 0 59 0 95 0 36 0 74 0 85
1 19 8 20 171 20 l170 0 0 -115z"/>
<path d="M865 480 c3 -16 -2 -20 -21 -20 -13 0 -23 -3 -23 -7 3 -21 -2 -33
-16 -33 -16 0 -16 -3 -16 -125 0 -148 0 -147 19 -143 9 2 16 10 14 17 -1 7 7
15 18 18 18 5 24 15 21 36 0 4 8 7 19 7 12 0 20 7 21 18 1 20 1 221 0 240 -1
6 -10 12 -20 12 -14 0 -19 -6 -16 -20z"/>
<path d="M137 375 c-2 -5 -3 -57 -3 -115 l1 -105 308 -1 308 -1 -3 116 -3 116
-302 0 c-193 0 -304 -4 -306 -10z m533 -85 c0 -10 -9 -20 -20 -23 -11 -3 -20
-12 -20 -21 0 -23 -27 -20 -35 4 -6 18 -15 20 -81 20 -55 0 -74 3 -74 13 0 24
9 25 121 25 97 -1 109 -3 109 -18z m-400 -40 c0 -13 -7 -20 -20 -20 -13 0 -20
7 -20 20 0 13 7 20 20 20 13 0 20 -7 20 -20z"/>
<path d="M60 78 c0 -35 2 -38 28 -38 38 -1 483 -1 560 0 56 0 62 2 62 21 0 16
5 20 20 16 15 -4 20 0 20 16 l0 22 -345 0 -345 0 0 -37z"/>
</g>
</svg>
